<?xml version="1.0" encoding="UTF-8" standalone="no"?>
<!DOCTYPE svg PUBLIC "-//W3C//DTD SVG 1.1//EN" "http://www.w3.org/Graphics/SVG/1.1/DTD/svg11.dtd">
<svg version="1.1" xmlns="http://www.w3.org/2000/svg" xmlns:xlink="http://www.w3.org/1999/xlink" preserveAspectRatio="xMidYMid meet" viewBox="0 0 360 230" width="360" height="230"><defs><path d="M340.08 10C345.56 10 350 14.44 350 19.92C350 59.93 350 170.06 350 210.08C350 215.56 345.56 220 340.08 220C274.06 220 85.94 220 19.92 220C14.44 220 10 215.56 10 210.08C10 170.06 10 59.93 10 19.92C10 14.44 14.44 10 19.92 10C85.94 10 274.06 10 340.08 10Z" id="a4AojFyub9"></path><path d="M350 50L10 50" id="cddCYOBOT"></path><path d="M30 220L30 49" id="a7vUTfSlG"></path><path d="M100 220L100 50" id="bBV2Zwhxj"></path><path d="M20 29.8L340 29.8L340 40.68L20 40.68L20 29.8Z" id="g5VFvJjTEk"></path><path d="M24.53 20C24.53 22.5 22.5 24.53 20 24.53C17.5 24.53 15.47 22.5 15.47 20C15.47 17.49 17.5 15.46 20 15.46C22.5 15.46 24.53 17.49 24.53 20Z" id="g2E3lPqUab"></path><path d="M39.07 20C39.07 22.5 37.04 24.53 34.53 24.53C32.03 24.53 30 22.5 30 20C30 17.49 32.03 15.46 34.53 15.46C37.04 15.46 39.07 17.49 39.07 20Z" id="arArFbLGg"></path><path d="M53.53 20.23C53.4 22.73 51.26 24.65 48.76 24.52C46.26 24.39 44.34 22.26 44.47 19.76C44.6 17.26 46.74 15.34 49.24 15.47C51.74 15.6 53.66 17.73 53.53 20.23Z" id="b1aAxnXwPi"></path></defs><g><g><g><g><use xlink:href="#a4AojFyub9" opacity="1" fill-opacity="0" stroke="#837bb3" stroke-width="2" stroke-opacity="1"></use></g></g><g><g><use xlink:href="#cddCYOBOT" opacity="1" fill-opacity="0" stroke="#837bb3" stroke-width="2" stroke-opacity="1"></use></g></g><g><g><use xlink:href="#a7vUTfSlG" opacity="1" fill-opacity="0" stroke="#837bb3" stroke-width="2" stroke-opacity="1"></use></g></g><g><g><use xlink:href="#bBV2Zwhxj" opacity="1" fill-opacity="0" stroke="#837bb3" stroke-width="2" stroke-opacity="1"></use></g></g><g><g><use xlink:href="#g5VFvJjTEk" opacity="1" fill-opacity="0" stroke="#837bb3" stroke-width="2" stroke-opacity="1"></use></g></g><g><g><use xlink:href="#g2E3lPqUab" opacity="1" fill-opacity="0" stroke="#837bb3" stroke-width="2" stroke-opacity="1"></use></g></g><g><g><use xlink:href="#arArFbLGg" opacity="1" fill-opacity="0" stroke="#837bb3" stroke-width="2" stroke-opacity="1"></use></g></g><g><g><use xlink:href="#b1aAxnXwPi" opacity="1" fill-opacity="0" stroke="#837bb3" stroke-width="2" stroke-opacity="1"></use></g></g></g></g></svg>